<svg fill="none" height="18" viewBox="0 0 18 18" width="18" xmlns="http://www.w3.org/2000/svg"><path d="m4.25 13.75h6.5v-1.5h-6.5zm0-4h9.5v-1.5h-9.5zm0-4h9.5v-1.5h-9.5zm-1.94225 11.75c-.50517 0-.93275-.175-1.28275-.525s-.525-.7776-.525-1.2827v-13.38455c0-.50517.175-.93275.525-1.28275s.77758-.525 1.28275-.525h13.38455c.5051 0 .9327.175 1.2827.525s.525.77758.525 1.28275v13.38455c0 .5051-.175.9327-.525 1.2827s-.7776.525-1.2827.525zm0-1.5h13.38455c.0769 0 .1475-.0321.2115-.0962.0641-.064.0962-.1346.0962-.2115v-13.38455c0-.077-.0321-.1475-.0962-.2115-.064-.06417-.1346-.09625-.2115-.09625h-13.38455c-.077 0-.1475.03208-.2115.09625-.06417.064-.09625.1345-.09625.2115v13.38455c0 .0769.03208.1475.09625.2115.064.0641.1345.0962.2115.0962z" fill="#003087"/></svg>