<svg width="18" height="18" viewBox="0 0 18 18" fill="none" xmlns="http://www.w3.org/2000/svg">
<mask id="mask0_175_2371" style="mask-type:alpha" maskUnits="userSpaceOnUse" x="0" y="0" width="18" height="18">
<rect width="18" height="18" fill="#D9D9D9"/>
</mask>
<g mask="url(#mask0_175_2371)">
<path d="M8.99869 16.2692C8.62556 16.2692 8.30656 16.1364 8.04169 15.8709C7.77669 15.6054 7.64419 15.2863 7.64419 14.9134H10.3558C10.3558 15.2875 10.2229 15.607 9.95719 15.8719C9.69144 16.1368 9.37194 16.2692 8.99869 16.2692ZM3.375 14.1634V13.0386H4.73081V7.44225C4.73081 6.43363 5.04213 5.54181 5.66475 4.76681C6.28725 3.99181 7.0865 3.49612 8.0625 3.27975V2.8125C8.0625 2.55213 8.15356 2.33075 8.33569 2.14838C8.51781 1.96613 8.73894 1.875 8.99906 1.875C9.25931 1.875 9.48075 1.96613 9.66338 2.14838C9.84613 2.33075 9.9375 2.55213 9.9375 2.8125V2.9625C9.76438 3.24138 9.63212 3.54038 9.54075 3.8595C9.4495 4.17875 9.40388 4.50525 9.40388 4.839C9.40388 5.85725 9.76106 6.72719 10.4754 7.44881C11.1898 8.17044 12.0537 8.53606 13.0672 8.54569H13.1683C13.2019 8.54569 13.2356 8.54331 13.2692 8.53856V13.0386H14.625V14.1634H3.375Z" fill="white"/>
<path d="M11.6501 6.30006C12.0515 6.70093 12.5385 6.90137 13.1111 6.90137C13.6839 6.90137 14.1707 6.70062 14.5715 6.29912C14.9724 5.89774 15.1729 5.41068 15.1729 4.83793C15.1729 4.26531 14.9721 3.77855 14.5706 3.37768C14.1692 2.9768 13.6822 2.77637 13.1094 2.77637C12.5368 2.77637 12.05 2.97705 11.6492 3.37843C11.2483 3.77993 11.0479 4.26699 11.0479 4.83962C11.0479 5.41237 11.2486 5.89918 11.6501 6.30006Z" fill="#E57200"/>
</g>
</svg>
