<svg width="140" height="20" viewBox="0 0 140 20" fill="none" xmlns="http://www.w3.org/2000/svg">
<path d="M8.73438 10.026C8.73438 12.4184 9.89067 14.6552 12.3229 16.605C14.0072 17.9347 15.9424 18.9111 18.0127 19.4758H19.5896V0.572266H18.6467C12.0139 1.8422 8.73438 5.86333 8.73438 10.026Z" fill="#008C95"/>
<path d="M0.161621 0V20H20.2454V0H0.161621ZM13.5189 0.572169H13.9954C13.7462 0.645933 13.5009 0.723684 13.2597 0.803429C13.0843 0.85925 12.9128 0.919059 12.7414 0.978868C12.5699 1.03868 12.4403 1.08453 12.2928 1.14035C7.10939 3.05821 3.57271 6.26396 3.57271 10.0578C3.57271 13.9813 7.231 17.5219 12.7434 19.4757H0.68395V0.572169H13.5189ZM19.5835 0.572169V19.4757H18.0125C15.942 18.9104 14.0068 17.9333 12.3227 16.6029C9.89248 14.6551 8.73419 12.4163 8.73419 10.0239C8.73419 5.86124 12.0197 1.85008 18.6525 0.570175L19.5835 0.572169Z" fill="white"/>
<path d="M3.57882 10.0579C3.57882 6.27003 7.12348 3.05831 12.2989 1.14045C12.4478 1.08463 12.5973 1.0308 12.7475 0.978964C12.9189 0.919156 13.0904 0.859347 13.2658 0.803526C13.507 0.723781 13.7523 0.64603 14.0015 0.572266H0.684082V19.4758H12.7574C7.23711 17.522 3.57882 13.9814 3.57882 10.0579Z" fill="#003087"/>
<path d="M34.2365 19.9043C39.077 19.9043 42.6894 17.0155 42.9566 12.0933H37.9725C37.7851 14.2863 36.4474 15.624 34.1208 15.624C30.9111 15.624 29.679 12.7891 29.679 9.95215C29.679 7.11523 30.9111 4.2803 34.1208 4.2803C36.2062 4.2803 37.7093 5.29705 37.9725 7.22289H42.9566C42.825 2.62161 38.3553 0 34.2365 0C28.455 0 24.7109 4.41387 24.7109 9.95215C24.7109 15.4904 28.4569 19.9043 34.2365 19.9043Z" fill="white"/>
<path d="M88.5706 16.0786H95.2313L96.4095 19.5037H101.593L94.4598 0.398804H89.4L82.2568 19.5037H87.3665L88.5706 16.0786ZM91.888 5.69785H91.9418L94.0611 12.3864H89.721L91.888 5.69785Z" fill="white"/>
<path d="M111.043 19.9043C112.809 19.9043 115.056 19.2624 116.368 17.4163L116.661 19.5036H119.873V9.04306H111.846V12.7352H115.323C115.056 14.4737 113.398 15.624 110.937 15.624C107.728 15.624 106.498 12.7891 106.498 9.95215C106.498 7.11523 107.728 4.2803 110.937 4.2803C112.945 4.2803 114.55 5.27711 114.711 6.90191H119.695C119.231 2.11324 114.994 0 111.043 0C105.262 0 101.52 4.41387 101.52 9.95215C101.52 15.4904 105.266 19.9043 111.043 19.9043Z" fill="white"/>
<path d="M128.3 11.6367H134.855V19.5035H139.829V0.400635H134.855V7.35638H128.3V0.400635H123.324V19.5035H128.3V11.6367Z" fill="white"/>
<path d="M81.0529 15.2232H70.5386V11.5848H79.9026V7.73118H70.5386V4.38788H80.7858V0.400635H65.5625V19.5035H81.0529V15.2232Z" fill="white"/>
<path d="M50.9028 12.5479H54.6748C57.0013 12.5479 57.3223 14.5276 57.4559 16.4534C57.5097 16.9877 57.5914 18.8617 58.0181 19.5037H62.9403C62.2725 18.8079 62.1927 15.9989 62.1429 15.1955C61.9814 13.3773 61.3933 11.1026 59.3518 10.6221V10.5663C61.3594 9.78876 62.3422 7.837 62.3422 5.78158C62.3622 1.92592 59.0348 0.398804 55.6636 0.398804H45.9268V19.5037H50.9108L50.9028 12.5479ZM50.9028 4.38804H54.8622C56.2577 4.38804 57.3761 5.02998 57.3761 6.44745C57.3761 7.86491 56.5787 8.69426 55.0755 8.69426H50.9028V4.38804Z" fill="white"/>
</svg>
