<svg width="18" height="18" viewBox="0 0 18 18" fill="none" xmlns="http://www.w3.org/2000/svg">
<mask id="mask0_15_4352" style="mask-type:alpha" maskUnits="userSpaceOnUse" x="0" y="0" width="18" height="18">
<rect width="18" height="18" fill="#D9D9D9"/>
</mask>
<g mask="url(#mask0_15_4352)">
<path d="M8.99175 13.2114C9.20588 13.2114 9.38675 13.1376 9.53438 12.9898C9.682 12.8419 9.75581 12.6609 9.75581 12.4466C9.75581 12.2325 9.68188 12.0516 9.534 11.904C9.38613 11.7565 9.20512 11.6827 8.991 11.6827C8.77688 11.6827 8.596 11.7567 8.44837 11.9046C8.30075 12.0524 8.22694 12.2334 8.22694 12.4476C8.22694 12.6617 8.30088 12.8426 8.44875 12.9902C8.59663 13.1377 8.77763 13.2114 8.99175 13.2114ZM8.46056 10.5259H9.51638C9.526 10.1567 9.58006 9.86181 9.67856 9.64106C9.77719 9.42044 10.0164 9.12794 10.3961 8.76356C10.726 8.43369 10.9786 8.12906 11.154 7.84969C11.3295 7.57044 11.4172 7.24063 11.4172 6.86025C11.4172 6.21463 11.1853 5.71031 10.7214 5.34731C10.2574 4.98444 9.70863 4.803 9.075 4.803C8.449 4.803 7.931 4.97006 7.521 5.30419C7.11088 5.63831 6.81831 6.03181 6.64331 6.48469L7.60669 6.87113C7.69806 6.62213 7.85431 6.37956 8.07544 6.14344C8.29656 5.90744 8.62494 5.78944 9.06056 5.78944C9.50381 5.78944 9.83144 5.91081 10.0434 6.15356C10.2556 6.39644 10.3616 6.6635 10.3616 6.95475C10.3616 7.20962 10.289 7.44281 10.1438 7.65431C9.99863 7.86581 9.81356 8.07012 9.58856 8.26725C9.09619 8.7115 8.78512 9.06588 8.65537 9.33038C8.5255 9.59475 8.46056 9.99325 8.46056 10.5259ZM9.00131 16.125C8.01581 16.125 7.0895 15.938 6.22237 15.564C5.35525 15.19 4.601 14.6824 3.95962 14.0413C3.31825 13.4002 2.81044 12.6463 2.43619 11.7795C2.06206 10.9128 1.875 9.98669 1.875 9.00131C1.875 8.01581 2.062 7.0895 2.436 6.22237C2.81 5.35525 3.31756 4.601 3.95869 3.95962C4.59981 3.31825 5.35375 2.81044 6.2205 2.43619C7.08725 2.06206 8.01331 1.875 8.99869 1.875C9.98419 1.875 10.9105 2.062 11.7776 2.436C12.6448 2.81 13.399 3.31756 14.0404 3.95869C14.6818 4.59981 15.1896 5.35375 15.5638 6.2205C15.9379 7.08725 16.125 8.01331 16.125 8.99869C16.125 9.98419 15.938 10.9105 15.564 11.7776C15.19 12.6448 14.6824 13.399 14.0413 14.0404C13.4002 14.6818 12.6463 15.1896 11.7795 15.5638C10.9128 15.9379 9.98669 16.125 9.00131 16.125Z" fill="white"/>
</g>
</svg>
