<svg width="598" height="834" viewBox="0 0 598 834" fill="none" xmlns="http://www.w3.org/2000/svg">
<g clip-path="url(#clip0_99_14249)">
<rect width="598" height="834" fill="white"/>
<path d="M-0.0390625 581.188L33.6563 547.678C34.3515 546.895 35.0952 546.156 35.8831 545.465C40.4385 541.462 46.3096 539.255 52.389 539.26H268.147C274.776 539.262 281.133 541.882 285.82 546.544C290.507 551.205 293.14 557.527 293.14 564.118V778.555C293.141 781.855 292.48 785.122 291.195 788.165C289.911 791.208 288.028 793.966 285.659 796.276L247.715 834H-0.0390625V581.188Z" fill="#003087"/>
<path d="M287.778 290.079L598 598.501V834H350.686L46.6069 531.686C45.8474 531.018 45.1298 530.305 44.4582 529.55C40.5759 525.185 38.4357 519.558 38.4419 513.732V306.907C38.4406 303.758 39.0635 300.64 40.2749 297.731C41.4863 294.822 43.2625 292.178 45.5019 289.952C47.7414 287.725 50.4002 285.959 53.3265 284.755C56.2527 283.551 59.389 282.931 62.5561 282.933H270.588C273.792 282.929 276.963 283.561 279.917 284.794C282.871 286.026 285.547 287.833 287.788 290.109" fill="#008C95"/>
<path d="M303.558 276.671L505.626 83.5689L418.072 0H598V171.86V239.357V342.176V483L559.869 519.779C559.156 520.544 558.397 521.268 557.594 521.946C552.944 525.861 546.979 528.012 540.808 528H321.421C318.1 528.016 314.808 527.401 311.733 526.189C308.658 524.977 305.86 523.193 303.5 520.937C301.139 518.681 299.262 515.998 297.975 513.042C296.688 510.085 296.017 506.913 296 503.706V293.997C296.001 290.764 296.675 287.565 297.982 284.588C299.289 281.612 301.202 278.919 303.608 276.671" fill="#003087"/>
<g clip-path="url(#clip1_99_14249)">
<mask id="mask0_99_14249" style="mask-type:luminance" maskUnits="userSpaceOnUse" x="36" y="84" width="35" height="37">
<path d="M36.5671 120.693H70.2853V84.8799H36.5671V120.693Z" fill="white"/>
</mask>
<g mask="url(#mask0_99_14249)">
<path d="M60.683 84.92H70.3059L70.2543 120.638H58.9439C57.3166 119.598 55.8414 118.311 54.5655 116.816C52.4347 114.4 51.3281 112.801 50.1905 109.717C48.9051 106.227 48.5168 103.934 48.8914 100.226C49.2351 96.7178 49.6887 94.4802 51.7336 91.706C52.7165 90.3736 53.452 89.7968 54.7064 88.7383C56.5045 87.1534 58.5199 85.8695 60.683 84.931" fill="#008C95"/>
<path d="M60.683 84.92H70.3059L70.2543 120.638H58.9439C57.3166 119.598 55.8414 118.311 54.5655 116.816C52.4347 114.4 51.3281 112.801 50.1905 109.717C48.9051 106.227 48.5168 103.934 48.8914 100.226C49.2351 96.7178 49.6887 94.4802 51.7336 91.706C52.7165 90.3736 53.452 89.7968 54.7064 88.7383C56.5045 87.1534 58.5199 85.8695 60.683 84.931V84.92Z" stroke="#008C95" stroke-width="0.9" stroke-miterlimit="3.86"/>
</g>
<path d="M36.574 84.9894L62.9787 84.8799C59.2292 85.7925 57.0777 87.0701 54.3524 89.9684C51.493 92.9982 50.2523 95.4438 49.4275 99.6417C48.8329 102.668 48.6061 104.602 49.4275 107.57C50.6201 111.885 53.0602 113.703 56.5072 116.331C60.0299 118.988 62.5285 120.051 66.8175 120.649H36.574V84.9894Z" fill="#003087"/>
<mask id="mask1_99_14249" style="mask-type:luminance" maskUnits="userSpaceOnUse" x="36" y="84" width="35" height="37">
<path d="M36.5671 120.693H70.2853V84.8799H36.5671V120.693Z" fill="white"/>
</mask>
<g mask="url(#mask1_99_14249)">
<path d="M36.574 84.9894L62.9787 84.8799C59.2292 85.7925 57.0777 87.0701 54.3524 89.9684C51.493 92.9982 50.2523 95.4438 49.4275 99.6417C48.8329 102.668 48.6061 104.602 49.4275 107.57C50.6201 111.885 53.0602 113.703 56.5072 116.331C60.0299 118.988 62.5285 120.051 66.8175 120.649H36.574V84.9894Z" stroke="#003087" stroke-width="0.9" stroke-miterlimit="3.86"/>
<path d="M95.2842 87.7928C94.9852 86.0736 95.3839 85.2741 92.4936 84.6609C87.2928 83.6406 82.0207 83.085 76.7325 83C58.4799 83 42.1208 91.4797 42.1208 102.847C42.1208 113.725 56.5828 123 74.7358 123C80.8386 123.039 86.9166 122.171 92.7926 120.419C95.8857 119.499 95.7826 119.375 95.9819 117.47L96.4837 112.494C96.5833 112.064 96.1812 111.695 95.3839 111.695C92.6929 111.695 91.4935 121.343 76.0349 121.343C67.955 121.343 61.7689 118.7 57.1808 114.827C52.9914 111.264 50.9946 107.161 50.9946 102.781C50.9946 93.5676 59.2738 84.7193 76.0314 84.7193C91.4969 84.7193 92.2908 92.5821 94.8821 92.5821C95.6794 92.5821 95.9784 92.2754 95.9784 91.7826L95.2911 87.7892L95.2842 87.7928Z" fill="white"/>
</g>
<mask id="mask2_99_14249" style="mask-type:luminance" maskUnits="userSpaceOnUse" x="36" y="84" width="241" height="38">
<path d="M36.2302 121.051H277V84.4309H36.2302V121.051Z" fill="white"/>
</mask>
<g mask="url(#mask2_99_14249)">
<path d="M36.5671 84.8762H70.2853V120.689H36.5671V84.8762Z" stroke="white" stroke-width="3.29" stroke-miterlimit="10"/>
</g>
<path d="M248.547 120.142H257.139V105.738H268.439V120.142H277.031V85.161H268.439V97.9005H257.139V85.161H248.547V120.138V120.142ZM242.598 100.989H228.761V107.749H234.755C234.295 110.932 231.435 113.038 227.194 113.038C221.661 113.038 219.541 107.844 219.541 102.653C219.541 97.4625 221.661 92.2681 227.194 92.2681C230.655 92.2681 233.422 94.0933 233.7 97.0682H242.292C241.508 88.3075 234.219 84.4309 227.394 84.4309C217.427 84.4309 210.976 92.5127 210.976 102.653C210.976 112.794 217.434 120.876 227.394 120.876C230.439 120.876 234.312 119.7 236.573 116.32L237.078 120.142H242.615V100.989H242.598ZM177.753 120.142H186.561L188.623 113.871H200.106L202.137 120.142H211.072L198.789 85.161H190.074L177.76 120.138L177.753 120.142ZM194.356 94.8635H194.449L198.092 107.11H190.62L194.356 94.8635ZM148.991 120.142H175.694V112.305H157.548V105.643H173.701V98.5868H157.548V92.4616H175.213V85.161H148.973V120.138L148.991 120.142ZM123.703 92.4616H130.528C132.934 92.4616 134.862 93.637 134.862 96.2323C134.862 98.8277 133.487 100.346 130.896 100.346H123.703V92.4616ZM115.111 120.138H123.703V107.406H130.205C134.216 107.406 134.769 111.031 134.999 114.557C135.092 115.535 135.233 118.966 135.969 120.142H144.454C143.303 118.868 143.165 113.725 143.079 112.253C142.801 108.924 141.787 104.759 138.268 103.858V103.778C141.729 102.354 143.423 98.7802 143.423 95.0168C143.423 87.9607 137.704 85.161 131.893 85.161H115.125V120.138H115.111ZM109.99 97.6523C109.777 89.231 102.072 84.4309 94.9714 84.4309C85.0048 84.4309 78.5505 92.5127 78.5505 102.653C78.5505 112.794 85.0082 120.876 94.9714 120.876C103.316 120.876 109.543 115.586 110.004 106.57H101.412C101.089 110.585 98.7828 113.038 94.7721 113.038C89.2389 113.038 87.115 107.844 87.115 102.653C87.115 97.4625 89.2389 92.2681 94.7721 92.2681C98.367 92.2681 100.958 94.1298 101.412 97.6559L109.99 97.6523Z" fill="#003087"/>
</g>
</g>
<defs>
<clipPath id="clip0_99_14249">
<rect width="598" height="834" fill="white"/>
</clipPath>
<clipPath id="clip1_99_14249">
<rect width="241" height="40" fill="white" transform="translate(36 83)"/>
</clipPath>
</defs>
</svg>
